# xmcd
#
# Track frame offsets: 
#        150
#        18636
#        37615
#        56741
#        77292
#        94581
#        106956
#        119932
#
# Disc length: 1818 seconds
#
# Revision: 0
# Processed by: cddbd v1.5.2PL0 Copyright (c) Steve Scherf et al.
# Submitted via: ExactAudioCopy v0.99pb4
#
DISCID=5b071808
DTITLE=Cameo - Alligator Woman
DYEAR=1982
DGENRE=R&B
TTITLE0=Be Yourself
TTITLE1=Soul Army
TTITLE2=Flirt
TTITLE3=Enjoy Your Life
TTITLE4=Alligator Woman
TTITLE5=Secrets Of Time
TTITLE6=I Owe It All To You
TTITLE7=For You
EXTD=
EXTT0=
EXTT1=
EXTT2=
EXTT3=
EXTT4=
EXTT5=
EXTT6=
EXTT7=
PLAYORDER=
